<svg xmlns="http://www.w3.org/2000/svg" width="1400" height="900" viewBox="0 0 1400 900">
  <rect width="1400" height="900" fill="#f5f7fb"/>
  <rect x="0" y="0" width="1400" height="70" fill="#1f4e79"/>
  <rect x="0" y="70" width="260" height="830" fill="#2f5d8a"/>
  <rect x="280" y="95" width="250" height="110" rx="12" fill="#ffffff" stroke="#d8e3f0"/>
  <rect x="550" y="95" width="250" height="110" rx="12" fill="#ffffff" stroke="#d8e3f0"/>
  <rect x="820" y="95" width="250" height="110" rx="12" fill="#ffffff" stroke="#d8e3f0"/>
  <rect x="1090" y="95" width="250" height="110" rx="12" fill="#ffffff" stroke="#d8e3f0"/>
  <rect x="280" y="235" width="1060" height="280" rx="16" fill="#ffffff" stroke="#d8e3f0"/>
  <rect x="280" y="540" width="500" height="320" rx="16" fill="#ffffff" stroke="#d8e3f0"/>
  <rect x="810" y="540" width="530" height="320" rx="16" fill="#ffffff" stroke="#d8e3f0"/>
  <text x="40" y="42" fill="#ffffff" font-family="Segoe UI, Arial, sans-serif" font-size="28" font-weight="700">Data Explorer Pro</text>
  <text x="320" y="140" fill="#1f2937" font-family="Segoe UI, Arial, sans-serif" font-size="22" font-weight="700">Rows</text>
  <text x="590" y="140" fill="#1f2937" font-family="Segoe UI, Arial, sans-serif" font-size="22" font-weight="700">Columns</text>
  <text x="860" y="140" fill="#1f2937" font-family="Segoe UI, Arial, sans-serif" font-size="22" font-weight="700">Missing</text>
  <text x="1130" y="140" fill="#1f2937" font-family="Segoe UI, Arial, sans-serif" font-size="22" font-weight="700">Target</text>
  <text x="320" y="292" fill="#1f2937" font-family="Segoe UI, Arial, sans-serif" font-size="24" font-weight="700">Dataset status</text>
  <text x="320" y="340" fill="#4b5563" font-family="Segoe UI, Arial, sans-serif" font-size="18">Upload a CSV file to start exploring and modelling your data.</text>
  <text x="320" y="590" fill="#1f2937" font-family="Segoe UI, Arial, sans-serif" font-size="24" font-weight="700">Upload</text>
  <text x="840" y="590" fill="#1f2937" font-family="Segoe UI, Arial, sans-serif" font-size="24" font-weight="700">Preprocessing</text>
  <rect x="40" y="120" width="180" height="26" rx="13" fill="#5aa8ff"/>
  <rect x="40" y="180" width="160" height="26" rx="13" fill="#8ac7ff"/>
  <rect x="40" y="240" width="170" height="26" rx="13" fill="#8ac7ff"/>
  <rect x="40" y="300" width="140" height="26" rx="13" fill="#8ac7ff"/>
</svg>